<?xml version="1.0" standalone="no"?>
<!DOCTYPE svg PUBLIC "-//W3C//DTD SVG 20010904//EN" "http://www.w3.org/TR/2001/REC-SVG-20010904/DTD/svg10.dtd">
<svg version="1.0" xmlns="http://www.w3.org/2000/svg"
     width="512pt" height="512pt" viewBox="0 0 512 512"
     preserveAspectRatio="xMidYMid meet">
    <g transform="translate(0.000000,512.000000) scale(0.100000,-0.100000)"
       fill="#2c7744" stroke="none">
        <path d="M2425 5109 c-483 -52 -907 -190 -1320 -428 -598 -345 -1007 -901
        -1087 -1476 -27 -194 -14 -462 33 -655 137 -569 553 -1088 1149 -1435 384
        -224 761 -359 1235 -442 148 -26 637 -26 785 0 620 109 1123 367 1520 779
        335 348 530 766 584 1253 32 286 -6 550 -118 825 -224 547 -697 1006 -1321
        1281 -343 151 -668 234 -1035 264 -146 12 -299 21 -340 20 -41 -1 -80 -2
        -85 -1 -6 0 -51 -6 -100 -14z m440 -334 c477 -48 889 -195 1245 -443 296
        -206 530 -480 668 -782 122 -267 171 -496 171 -800 0 -304 -49 -533 -171
        -800 -138 -302 -372 -576 -668 -782 -356 -248 -768 -395 -1245 -443 -156
        -16 -474 -16 -630 0 -477 48 -889 195 -1245 443 -296 206 -530 480 -668 782
        -122 267 -171 496 -171 800 0 304 49 533 171 800 138 302 372 576 668 782
        356 248 768 395 1245 443 75 8 155 15 178 15 23 0 103 -7 178 -15z"/>
        <path d="M2410 4475 c-397 -42 -745 -165 -1055 -373 -259 -174 -475 -402
        -625 -657 -170 -290 -253 -575 -270 -925 -25 -489 120 -943 420 -1315 116
        -144 334 -339 485 -435 564 -357 1280 -473 1935 -315 269 65 496 167 723 324
        l102 71 -75 77 c-335 343 -492 770 -492 1333 0 397 86 733 274 1075 75 136
        192 300 280 390 35 36 63 68 63 72 0 12 -183 125 -300 185 -389 199 -804 300
        -1255 305 -91 1 -181 -2 -210 -7z m405 -335 c388 -41 734 -167 1040 -378 90
        -62 257 -201 269 -223 4 -7 -21 -42 -60 -85 -334 -364 -504 -841 -504 -1414
        0 -388 86 -722 274 -1064 22 -40 38 -75 35 -77 -2 -3 -37 -28 -77 -56 -311
        -220 -692 -337 -1097 -337 -405 0 -786 117 -1097 337 -40 28 -75 53 -77 56
        -3 2 13 37 35 77 188 342 274 676 274 1064 0 573 -170 1050 -504 1414 -39 43
        -64 78 -60 85 12 22 179 161 269 223 306 211 652 337 1040 378 120 13 120 13
        240 0z"/>
    </g>
</svg> 