<?xml version="1.0" standalone="no"?>
<!DOCTYPE svg PUBLIC "-//W3C//DTD SVG 20010904//EN"
 "http://www.w3.org/TR/2001/REC-SVG-20010904/DTD/svg10.dtd">
<svg version="1.0" xmlns="http://www.w3.org/2000/svg"
 width="250.000000pt" height="250.000000pt" viewBox="0 0 250.000000 250.000000"
 preserveAspectRatio="xMidYMid meet">

<g transform="translate(0.000000,250.000000) scale(0.100000,-0.100000)"
fill="#2c7744" stroke="none">
<path d="M1202 2023 c-87 -128 -152 -297 -152 -394 0 -70 21 -139 52 -175 131
-149 339 -44 338 170 0 96 -51 241 -126 362 -65 105 -65 106 -112 37z"/>
<path d="M146 1884 c-14 -53 -8 -278 9 -358 56 -267 208 -490 453 -666 110
-78 404 -222 421 -205 19 19 -113 284 -223 449 -113 169 -176 247 -310 384
-60 61 -106 112 -101 112 19 0 205 -150 291 -236 100 -99 227 -263 294 -380
95 -167 176 -423 201 -637 13 -106 13 -107 40 -107 26 0 27 2 33 73 30 308
165 622 387 892 71 88 245 257 324 317 117 88 119 80 8 -33 -179 -182 -327
-379 -447 -598 -52 -93 -121 -260 -112 -268 10 -10 277 107 371 162 294 175
485 430 547 734 15 75 19 126 16 238 -2 78 -6 144 -9 147 -19 20 -273 -81
-399 -158 -351 -215 -564 -527 -685 -1001 -13 -54 -26 -99 -28 -101 -2 -2 -13
44 -25 104 -41 210 -114 418 -192 552 -153 261 -419 470 -735 576 -56 19 -107
34 -113 34 -5 0 -13 -12 -16 -26z"/>
</g>
</svg>
